<?xml version="1.0" encoding="UTF-8"?>
<svg xmlns="http://www.w3.org/2000/svg" id="VeraData-logo-tagline" width="204.721" height="41.188" viewBox="0 0 204.721 41.188">
  <path id="Trazado_1" data-name="Trazado 1" d="M280.483,441.668l-9.812,24.3h-4.083l-9.812-24.3H260.4a1.524,1.524,0,0,1,.958.286,1.75,1.75,0,0,1,.554.739l5.729,14.819q.286.722.546,1.588t.5,1.806q.2-.941.437-1.806a15.02,15.02,0,0,1,.521-1.588l5.7-14.819a1.59,1.59,0,0,1,.529-.706,1.488,1.488,0,0,1,.966-.319Z" transform="translate(-203.705 -441.668)" fill="#024f9a"></path>
  <path id="Trazado_2" data-name="Trazado 2" d="M361.033,482.9a8.159,8.159,0,0,0,.47,2.293,4.692,4.692,0,0,0,.974,1.6,3.816,3.816,0,0,0,1.437.941,5.215,5.215,0,0,0,1.84.311,5.7,5.7,0,0,0,1.739-.235,8.119,8.119,0,0,0,1.277-.521q.546-.285.958-.521a1.609,1.609,0,0,1,.8-.235.859.859,0,0,1,.773.386l1.193,1.512a6.917,6.917,0,0,1-1.546,1.353,8.676,8.676,0,0,1-1.789.874,9.8,9.8,0,0,1-1.9.462,13.607,13.607,0,0,1-1.873.135,9.21,9.21,0,0,1-3.343-.6,7.482,7.482,0,0,1-2.688-1.764,8.273,8.273,0,0,1-1.8-2.89,11.183,11.183,0,0,1-.655-3.99,9.541,9.541,0,0,1,.571-3.318,7.98,7.98,0,0,1,1.638-2.705,7.72,7.72,0,0,1,2.6-1.823,8.58,8.58,0,0,1,3.469-.672,8.445,8.445,0,0,1,3.008.521,6.562,6.562,0,0,1,2.369,1.521,7.053,7.053,0,0,1,1.554,2.453,9.146,9.146,0,0,1,.563,3.318,2.7,2.7,0,0,1-.2,1.269.835.835,0,0,1-.773.328Zm7.914-2.5a5,5,0,0,0-.227-1.521,3.619,3.619,0,0,0-.681-1.252,3.17,3.17,0,0,0-1.151-.848,3.953,3.953,0,0,0-1.621-.311,3.844,3.844,0,0,0-2.831,1.025,5.027,5.027,0,0,0-1.319,2.907Z" transform="translate(-282.474 -466.705)" fill="#024f9a"></path>
  <path id="Trazado_3" data-name="Trazado 3" d="M446.523,476.567a7.437,7.437,0,0,1,1.915-2.428,4.085,4.085,0,0,1,2.621-.882,3.208,3.208,0,0,1,1.915.521l-.269,3.108a.8.8,0,0,1-.244.428.673.673,0,0,1-.428.126,4.879,4.879,0,0,1-.748-.084,5.769,5.769,0,0,0-.966-.084,3.477,3.477,0,0,0-1.227.2,3.082,3.082,0,0,0-.966.58,3.944,3.944,0,0,0-.756.916,8.927,8.927,0,0,0-.613,1.227v10.619h-4.15V473.576h2.436a1,1,0,0,1,1.226,1.042Z" transform="translate(-349.902 -466.52)" fill="#024f9a"></path>
  <path id="Trazado_4" data-name="Trazado 4" d="M492.586,475.98a10.229,10.229,0,0,1,7.157-2.722,7,7,0,0,1,2.705.5,5.718,5.718,0,0,1,2.016,1.378,5.9,5.9,0,0,1,1.252,2.109,8.106,8.106,0,0,1,.428,2.688v10.887h-1.882a1.9,1.9,0,0,1-.907-.176,1.222,1.222,0,0,1-.5-.714l-.37-1.243a14.99,14.99,0,0,1-1.277,1.033,7.534,7.534,0,0,1-1.294.748,6.973,6.973,0,0,1-1.437.462,8.276,8.276,0,0,1-1.689.159,6.625,6.625,0,0,1-2.016-.294,4.429,4.429,0,0,1-1.6-.882,3.953,3.953,0,0,1-1.041-1.462,5.18,5.18,0,0,1-.37-2.033,4.049,4.049,0,0,1,.219-1.3,3.8,3.8,0,0,1,.714-1.235,5.946,5.946,0,0,1,1.285-1.109,8.37,8.37,0,0,1,1.94-.907,16.8,16.8,0,0,1,2.68-.63,26.776,26.776,0,0,1,3.495-.294v-1.008a3.775,3.775,0,0,0-.739-2.562,2.706,2.706,0,0,0-2.134-.832,5.068,5.068,0,0,0-1.672.235,6.911,6.911,0,0,0-1.168.529q-.5.294-.916.529a1.811,1.811,0,0,1-.916.235,1.2,1.2,0,0,1-.739-.227,1.9,1.9,0,0,1-.487-.529Zm9.51,7.477a22.887,22.887,0,0,0-3.024.311,8.062,8.062,0,0,0-1.966.579,2.583,2.583,0,0,0-1.058.823,2.038,2.038,0,0,0,.328,2.587,2.8,2.8,0,0,0,1.689.471,4.923,4.923,0,0,0,2.21-.462,6.564,6.564,0,0,0,1.823-1.4Z" transform="translate(-388.573 -466.52)" fill="#024f9a"></path>
  <path id="Trazado_5" data-name="Trazado 5" d="M597.549,453.815a13.138,13.138,0,0,1-.891,4.906,11.016,11.016,0,0,1-6.385,6.351,13.684,13.684,0,0,1-5.04.89h-9.258v-24.3h9.258a13.576,13.576,0,0,1,5.04.9,11.368,11.368,0,0,1,3.881,2.5,11.185,11.185,0,0,1,2.5,3.839,13.14,13.14,0,0,1,.891,4.906m-4.637,0a11.314,11.314,0,0,0-.529-3.587,7.436,7.436,0,0,0-1.529-2.688,6.676,6.676,0,0,0-2.419-1.689,8.3,8.3,0,0,0-3.2-.588h-4.721v17.1h4.721a8.293,8.293,0,0,0,3.2-.588,6.671,6.671,0,0,0,2.419-1.689,7.435,7.435,0,0,0,1.529-2.688,11.313,11.313,0,0,0,.529-3.587" transform="translate(-454.825 -441.668)" fill="#024f9a"></path>
  <path id="Trazado_6" data-name="Trazado 6" d="M682.99,475.98a10.228,10.228,0,0,1,7.157-2.722,7,7,0,0,1,2.7.5,5.718,5.718,0,0,1,2.016,1.378,5.9,5.9,0,0,1,1.252,2.109,8.1,8.1,0,0,1,.428,2.688v10.887h-1.882a1.9,1.9,0,0,1-.907-.176,1.222,1.222,0,0,1-.5-.714l-.37-1.243a14.989,14.989,0,0,1-1.277,1.033,7.533,7.533,0,0,1-1.294.748,6.973,6.973,0,0,1-1.437.462,8.277,8.277,0,0,1-1.689.159,6.624,6.624,0,0,1-2.016-.294,4.429,4.429,0,0,1-1.6-.882,3.953,3.953,0,0,1-1.042-1.462,5.18,5.18,0,0,1-.37-2.033,4.048,4.048,0,0,1,.219-1.3,3.805,3.805,0,0,1,.714-1.235,5.948,5.948,0,0,1,1.286-1.109,8.369,8.369,0,0,1,1.94-.907,16.8,16.8,0,0,1,2.68-.63,26.774,26.774,0,0,1,3.495-.294v-1.008a3.775,3.775,0,0,0-.739-2.562,2.706,2.706,0,0,0-2.134-.832,5.068,5.068,0,0,0-1.672.235,6.913,6.913,0,0,0-1.168.529q-.5.294-.916.529a1.81,1.81,0,0,1-.916.235,1.2,1.2,0,0,1-.739-.227,1.9,1.9,0,0,1-.487-.529Zm9.51,7.477a22.885,22.885,0,0,0-3.024.311,8.061,8.061,0,0,0-1.966.579,2.585,2.585,0,0,0-1.059.823,2.039,2.039,0,0,0,.328,2.587,2.8,2.8,0,0,0,1.689.471,4.924,4.924,0,0,0,2.21-.462,6.567,6.567,0,0,0,1.823-1.4Z" transform="translate(-538.367 -466.52)" fill="#024f9a"></path>
  <path id="Trazado_7" data-name="Trazado 7" d="M764.229,472.8a4.527,4.527,0,0,1-3.453-1.268,4.889,4.889,0,0,1-1.2-3.5V458.4H757.81a.808.808,0,0,1-.571-.218.851.851,0,0,1-.235-.655v-1.647l2.772-.454.874-4.7a.922.922,0,0,1,.319-.521.951.951,0,0,1,.6-.185h2.151v5.427h4.6V458.4h-4.6v9.342a1.856,1.856,0,0,0,.395,1.26,1.361,1.361,0,0,0,1.084.454,1.953,1.953,0,0,0,.647-.092,3.5,3.5,0,0,0,.454-.193q.193-.1.344-.193a.577.577,0,0,1,.3-.092.476.476,0,0,1,.3.092,1.422,1.422,0,0,1,.252.277l1.243,2.016a6.281,6.281,0,0,1-2.083,1.142,7.754,7.754,0,0,1-2.436.386" transform="translate(-597.243 -448.238)" fill="#024f9a"></path>
  <path id="Trazado_8" data-name="Trazado 8" d="M814.781,475.98a10.229,10.229,0,0,1,7.157-2.722,7,7,0,0,1,2.705.5,5.719,5.719,0,0,1,2.016,1.378,5.9,5.9,0,0,1,1.252,2.109,8.1,8.1,0,0,1,.428,2.688v10.887h-1.882a1.9,1.9,0,0,1-.907-.176,1.222,1.222,0,0,1-.5-.714l-.37-1.243a15,15,0,0,1-1.277,1.033,7.533,7.533,0,0,1-1.294.748,6.972,6.972,0,0,1-1.437.462,8.275,8.275,0,0,1-1.688.159,6.624,6.624,0,0,1-2.016-.294,4.429,4.429,0,0,1-1.6-.882,3.953,3.953,0,0,1-1.041-1.462,5.18,5.18,0,0,1-.37-2.033,4.047,4.047,0,0,1,.219-1.3,3.8,3.8,0,0,1,.714-1.235,5.944,5.944,0,0,1,1.285-1.109,8.37,8.37,0,0,1,1.94-.907,16.8,16.8,0,0,1,2.68-.63,26.773,26.773,0,0,1,3.495-.294v-1.008a3.775,3.775,0,0,0-.739-2.562,2.706,2.706,0,0,0-2.134-.832,5.067,5.067,0,0,0-1.672.235,6.909,6.909,0,0,0-1.168.529q-.5.294-.916.529a1.811,1.811,0,0,1-.916.235,1.2,1.2,0,0,1-.739-.227,1.9,1.9,0,0,1-.487-.529Zm9.51,7.477a22.882,22.882,0,0,0-3.024.311,8.062,8.062,0,0,0-1.966.579,2.584,2.584,0,0,0-1.059.823,2.038,2.038,0,0,0,.328,2.587,2.8,2.8,0,0,0,1.689.471,4.923,4.923,0,0,0,2.21-.462,6.564,6.564,0,0,0,1.823-1.4Z" transform="translate(-642.05 -466.52)" fill="#024f9a"></path>
  <path id="Trazado_9" data-name="Trazado 9" d="M229.3,586.145h-2.122l.249-1.272h5.682l-.245,1.272h-2.137l-1.388,7.331H227.91Z" transform="translate(-180.419 -554.33)" fill="#6bb336"></path>
  <path id="Trazado_10" data-name="Trazado 10" d="M251.239,592.035l1.705-8.993h1.43l-.706,3.675.026,0a2.392,2.392,0,0,1,1.926-1.027,1.384,1.384,0,0,1,1.418,1.566,6.321,6.321,0,0,1-.117,1.1l-.7,3.674H254.8l.685-3.6a4.555,4.555,0,0,0,.079-.808c0-.439-.192-.76-.678-.76-.65,0-1.394.817-1.623,2.031l-.593,3.141Z" transform="translate(-199.349 -552.889)" fill="#6bb336"></path>
  <path id="Trazado_11" data-name="Trazado 11" d="M287,601.477a4.6,4.6,0,0,1-2.035.453,2.206,2.206,0,0,1-2.363-2.48c0-1.843,1.258-3.98,3.319-3.98a1.679,1.679,0,0,1,1.854,1.691c0,1.6-1.576,2.155-3.773,2.107a2.012,2.012,0,0,0,.145.905,1.219,1.219,0,0,0,1.163.628,3.33,3.33,0,0,0,1.556-.382Zm-1.265-4.911c-.8,0-1.381.775-1.585,1.631,1.345.017,2.289-.228,2.289-.993a.623.623,0,0,0-.7-.638" transform="translate(-224.026 -562.667)" fill="#6bb336"></path>
  <path id="Trazado_12" data-name="Trazado 12" d="M330.252,588.3a4.768,4.768,0,0,1-.323,1.78,4,4,0,0,1-2.316,2.3,4.962,4.962,0,0,1-1.828.323h-3.358v-8.812h3.358a4.923,4.923,0,0,1,1.828.326,4.123,4.123,0,0,1,1.408.908,4.059,4.059,0,0,1,.908,1.393,4.769,4.769,0,0,1,.323,1.78m-1.682,0a4.106,4.106,0,0,0-.192-1.3,2.7,2.7,0,0,0-.555-.975,2.421,2.421,0,0,0-.878-.612,3.009,3.009,0,0,0-1.161-.213h-1.712v6.2h1.712a3.007,3.007,0,0,0,1.161-.213,2.419,2.419,0,0,0,.878-.612,2.7,2.7,0,0,0,.555-.975,4.105,4.105,0,0,0,.192-1.3" transform="translate(-255.354 -553.557)" fill="#6bb336"></path>
  <path id="Trazado_13" data-name="Trazado 13" d="M365.934,595.434a3.414,3.414,0,0,1,1.265.225,2.77,2.77,0,0,1,.975.64,2.809,2.809,0,0,1,.625,1.012,4.191,4.191,0,0,1,0,2.675,2.873,2.873,0,0,1-.625,1.018,2.733,2.733,0,0,1-.975.646,3.415,3.415,0,0,1-1.265.225,3.455,3.455,0,0,1-1.274-.225,2.728,2.728,0,0,1-.978-.646,2.906,2.906,0,0,1-.628-1.018,4.134,4.134,0,0,1,0-2.675,2.841,2.841,0,0,1,.628-1.012,2.764,2.764,0,0,1,.978-.64,3.453,3.453,0,0,1,1.274-.225m0,5.284a1.324,1.324,0,0,0,1.155-.524,2.628,2.628,0,0,0,.375-1.536,2.659,2.659,0,0,0-.375-1.542,1.318,1.318,0,0,0-1.155-.53,1.344,1.344,0,0,0-1.173.534,2.628,2.628,0,0,0-.381,1.539,2.6,2.6,0,0,0,.381,1.533,1.35,1.35,0,0,0,1.173.527" transform="translate(-287.141 -562.638)" fill="#6bb336"></path>
  <path id="Trazado_14" data-name="Trazado 14" d="M398.643,596.3a4.058,4.058,0,0,1,.4-.35,2.529,2.529,0,0,1,.445-.274,2.481,2.481,0,0,1,.5-.177,2.518,2.518,0,0,1,.585-.064,2.24,2.24,0,0,1,.908.174,1.8,1.8,0,0,1,.661.487,2.148,2.148,0,0,1,.4.75,3.189,3.189,0,0,1,.137.96v3.98h-1.505V597.8a1.346,1.346,0,0,0-.262-.887.981.981,0,0,0-.8-.314,1.568,1.568,0,0,0-.731.177,2.625,2.625,0,0,0-.646.482v4.522h-1.505v-6.253h.92a.37.37,0,0,1,.384.274Z" transform="translate(-314.206 -562.638)" fill="#6bb336"></path>
  <path id="Trazado_15" data-name="Trazado 15" d="M431,595.434a3.414,3.414,0,0,1,1.265.225,2.77,2.77,0,0,1,.975.64,2.809,2.809,0,0,1,.625,1.012,4.191,4.191,0,0,1,0,2.675,2.873,2.873,0,0,1-.625,1.018,2.733,2.733,0,0,1-.975.646,3.416,3.416,0,0,1-1.265.225,3.455,3.455,0,0,1-1.274-.225,2.727,2.727,0,0,1-.978-.646,2.907,2.907,0,0,1-.628-1.018,4.134,4.134,0,0,1,0-2.675,2.842,2.842,0,0,1,.628-1.012,2.764,2.764,0,0,1,.978-.64,3.453,3.453,0,0,1,1.274-.225m0,5.284a1.324,1.324,0,0,0,1.155-.524,2.628,2.628,0,0,0,.375-1.536,2.659,2.659,0,0,0-.375-1.542,1.319,1.319,0,0,0-1.155-.53,1.344,1.344,0,0,0-1.173.534,2.628,2.628,0,0,0-.381,1.539,2.6,2.6,0,0,0,.381,1.533,1.35,1.35,0,0,0,1.173.527" transform="translate(-338.327 -562.638)" fill="#6bb336"></path>
  <path id="Trazado_16" data-name="Trazado 16" d="M463.718,596.55a2.7,2.7,0,0,1,.695-.881,1.482,1.482,0,0,1,.951-.32,1.164,1.164,0,0,1,.695.189l-.1,1.127a.292.292,0,0,1-.088.155.243.243,0,0,1-.155.046,1.779,1.779,0,0,1-.271-.031,2.1,2.1,0,0,0-.35-.03,1.258,1.258,0,0,0-.445.073,1.113,1.113,0,0,0-.35.21,1.434,1.434,0,0,0-.274.332,3.23,3.23,0,0,0-.222.445v3.852H462.3v-6.253h.884a.364.364,0,0,1,.445.378Z" transform="translate(-365.393 -562.572)" fill="#6bb336"></path>
  <path id="Trazado_17" data-name="Trazado 17" d="M499.522,585.134a.569.569,0,0,1-.155.186.346.346,0,0,1-.2.058.525.525,0,0,1-.277-.094q-.149-.094-.357-.21a2.957,2.957,0,0,0-.484-.21,2.038,2.038,0,0,0-.655-.094,1.954,1.954,0,0,0-.6.082,1.253,1.253,0,0,0-.43.229.913.913,0,0,0-.259.351,1.148,1.148,0,0,0-.085.448.779.779,0,0,0,.174.518,1.451,1.451,0,0,0,.46.353,4.272,4.272,0,0,0,.652.262q.366.116.75.247a7.088,7.088,0,0,1,.749.3,2.589,2.589,0,0,1,.652.439,1.987,1.987,0,0,1,.46.649,2.253,2.253,0,0,1,.174.932,3.04,3.04,0,0,1-.2,1.118,2.58,2.58,0,0,1-.6.908,2.811,2.811,0,0,1-.96.609,3.529,3.529,0,0,1-1.3.222,4.188,4.188,0,0,1-.829-.082,4.361,4.361,0,0,1-.783-.235,4.183,4.183,0,0,1-.7-.366,3.381,3.381,0,0,1-.585-.475l.481-.786a.517.517,0,0,1,.158-.143.4.4,0,0,1,.207-.058.583.583,0,0,1,.329.125q.177.125.42.277a3.312,3.312,0,0,0,.57.277,2.188,2.188,0,0,0,.783.125,1.608,1.608,0,0,0,1.085-.332,1.193,1.193,0,0,0,.384-.954.885.885,0,0,0-.174-.567,1.4,1.4,0,0,0-.46-.369,3.446,3.446,0,0,0-.652-.253q-.366-.1-.744-.226a6.34,6.34,0,0,1-.744-.292,2.408,2.408,0,0,1-.652-.445,2.022,2.022,0,0,1-.46-.685,2.612,2.612,0,0,1-.174-1.015,2.438,2.438,0,0,1,.75-1.749,2.733,2.733,0,0,1,.9-.567,3.31,3.31,0,0,1,1.231-.213,4.115,4.115,0,0,1,1.438.244,3.255,3.255,0,0,1,1.121.683Z" transform="translate(-390.435 -553.198)" fill="#6bb336"></path>
  <path id="Trazado_18" data-name="Trazado 18" d="M530.8,596.854a.76.76,0,0,1-.131.134.3.3,0,0,1-.186.049.414.414,0,0,1-.225-.07q-.11-.07-.262-.159a1.97,1.97,0,0,0-.363-.158,1.667,1.667,0,0,0-.521-.07,1.588,1.588,0,0,0-.695.143,1.316,1.316,0,0,0-.5.411,1.849,1.849,0,0,0-.3.649,3.481,3.481,0,0,0-.1.862,3.374,3.374,0,0,0,.107.89,1.9,1.9,0,0,0,.308.655,1.322,1.322,0,0,0,.487.4,1.478,1.478,0,0,0,.646.137,1.6,1.6,0,0,0,.582-.088,1.834,1.834,0,0,0,.375-.195q.152-.106.265-.2a.4.4,0,0,1,.253-.088.306.306,0,0,1,.274.14l.433.549a2.728,2.728,0,0,1-.542.491,2.918,2.918,0,0,1-.606.317,3.1,3.1,0,0,1-.646.168,4.556,4.556,0,0,1-.661.049,2.774,2.774,0,0,1-1.091-.216,2.573,2.573,0,0,1-.9-.631,3.011,3.011,0,0,1-.607-1.015,3.917,3.917,0,0,1-.222-1.368,3.976,3.976,0,0,1,.2-1.277,2.9,2.9,0,0,1,.582-1.018,2.674,2.674,0,0,1,.951-.674,3.278,3.278,0,0,1,1.3-.244,3.107,3.107,0,0,1,1.228.225,3,3,0,0,1,.948.646Z" transform="translate(-415.499 -562.638)" fill="#6bb336"></path>
  <path id="Trazado_19" data-name="Trazado 19" d="M556.289,583.8a.858.858,0,0,1-.079.366.994.994,0,0,1-.518.5.944.944,0,0,1-.378.076.907.907,0,0,1-.369-.076.976.976,0,0,1-.3-.2.992.992,0,0,1-.2-.3.886.886,0,0,1-.076-.366.945.945,0,0,1,.076-.378.955.955,0,0,1,.506-.509.909.909,0,0,1,.369-.076.946.946,0,0,1,.378.076,1.006,1.006,0,0,1,.308.2.984.984,0,0,1,.21.3.915.915,0,0,1,.079.378m-.207,8.075H554.57v-6.253h1.511Z" transform="translate(-437.822 -552.725)" fill="#6bb336"></path>
  <path id="Trazado_20" data-name="Trazado 20" d="M569.52,598.848a2.95,2.95,0,0,0,.171.832,1.7,1.7,0,0,0,.353.579,1.389,1.389,0,0,0,.521.341,1.9,1.9,0,0,0,.667.113,2.068,2.068,0,0,0,.631-.085,2.947,2.947,0,0,0,.463-.189q.2-.1.347-.189a.582.582,0,0,1,.289-.085.311.311,0,0,1,.28.14l.433.548a2.5,2.5,0,0,1-.561.491,3.12,3.12,0,0,1-.649.317,3.531,3.531,0,0,1-.689.168,4.945,4.945,0,0,1-.68.049,3.336,3.336,0,0,1-1.213-.216,2.706,2.706,0,0,1-.975-.64,3,3,0,0,1-.652-1.048,4.056,4.056,0,0,1-.238-1.447,3.459,3.459,0,0,1,.207-1.2,2.893,2.893,0,0,1,.594-.981,2.8,2.8,0,0,1,.945-.661,3.112,3.112,0,0,1,1.259-.244,3.059,3.059,0,0,1,1.091.189,2.377,2.377,0,0,1,.859.552,2.554,2.554,0,0,1,.564.89,3.316,3.316,0,0,1,.2,1.2.978.978,0,0,1-.073.46.3.3,0,0,1-.28.119Zm2.87-.908a1.8,1.8,0,0,0-.082-.552,1.308,1.308,0,0,0-.247-.454,1.15,1.15,0,0,0-.417-.308,1.434,1.434,0,0,0-.588-.113,1.394,1.394,0,0,0-1.027.372,1.821,1.821,0,0,0-.478,1.054Z" transform="translate(-448.567 -562.639)" fill="#6bb336"></path>
  <path id="Trazado_21" data-name="Trazado 21" d="M601.546,596.3a4.034,4.034,0,0,1,.4-.35,2.536,2.536,0,0,1,.445-.274,2.479,2.479,0,0,1,.5-.177,2.517,2.517,0,0,1,.585-.064,2.24,2.24,0,0,1,.908.174,1.8,1.8,0,0,1,.661.487,2.15,2.15,0,0,1,.4.75,3.193,3.193,0,0,1,.137.96v3.98h-1.505V597.8a1.346,1.346,0,0,0-.262-.887.981.981,0,0,0-.8-.314,1.569,1.569,0,0,0-.731.177,2.624,2.624,0,0,0-.646.482v4.522h-1.505v-6.253h.92a.37.37,0,0,1,.384.274Z" transform="translate(-473.834 -562.638)" fill="#6bb336"></path>
  <path id="Trazado_22" data-name="Trazado 22" d="M635.613,596.854a.76.76,0,0,1-.131.134.3.3,0,0,1-.186.049.414.414,0,0,1-.225-.07q-.11-.07-.262-.159a1.968,1.968,0,0,0-.363-.158,1.667,1.667,0,0,0-.521-.07,1.588,1.588,0,0,0-.695.143,1.317,1.317,0,0,0-.5.411,1.851,1.851,0,0,0-.3.649,3.484,3.484,0,0,0-.1.862,3.372,3.372,0,0,0,.107.89,1.9,1.9,0,0,0,.308.655,1.323,1.323,0,0,0,.487.4,1.478,1.478,0,0,0,.646.137,1.6,1.6,0,0,0,.582-.088,1.838,1.838,0,0,0,.375-.195q.152-.106.265-.2a.4.4,0,0,1,.253-.088.305.305,0,0,1,.274.14l.433.549a2.728,2.728,0,0,1-.542.491,2.918,2.918,0,0,1-.606.317,3.105,3.105,0,0,1-.646.168,4.555,4.555,0,0,1-.661.049,2.774,2.774,0,0,1-1.091-.216,2.573,2.573,0,0,1-.9-.631,3.011,3.011,0,0,1-.607-1.015,3.918,3.918,0,0,1-.222-1.368,3.979,3.979,0,0,1,.2-1.277,2.9,2.9,0,0,1,.582-1.018,2.673,2.673,0,0,1,.951-.674,3.277,3.277,0,0,1,1.3-.244,3.105,3.105,0,0,1,1.228.225,3,3,0,0,1,.948.646Z" transform="translate(-497.954 -562.638)" fill="#6bb336"></path>
  <path id="Trazado_23" data-name="Trazado 23" d="M659.3,598.848a2.961,2.961,0,0,0,.171.832,1.7,1.7,0,0,0,.353.579,1.389,1.389,0,0,0,.521.341,1.9,1.9,0,0,0,.667.113,2.068,2.068,0,0,0,.631-.085,2.951,2.951,0,0,0,.463-.189q.2-.1.347-.189a.581.581,0,0,1,.289-.085.311.311,0,0,1,.28.14l.433.548a2.5,2.5,0,0,1-.561.491,3.118,3.118,0,0,1-.649.317,3.527,3.527,0,0,1-.689.168,4.946,4.946,0,0,1-.68.049,3.337,3.337,0,0,1-1.213-.216,2.707,2.707,0,0,1-.975-.64,3,3,0,0,1-.652-1.048,4.056,4.056,0,0,1-.238-1.447,3.46,3.46,0,0,1,.207-1.2,2.892,2.892,0,0,1,.594-.981,2.8,2.8,0,0,1,.945-.661,3.112,3.112,0,0,1,1.259-.244,3.059,3.059,0,0,1,1.091.189,2.377,2.377,0,0,1,.859.552,2.554,2.554,0,0,1,.564.89,3.316,3.316,0,0,1,.2,1.2.979.979,0,0,1-.073.46.3.3,0,0,1-.28.119Zm2.87-.908a1.8,1.8,0,0,0-.082-.552,1.31,1.31,0,0,0-.247-.454,1.151,1.151,0,0,0-.417-.308,1.434,1.434,0,0,0-.588-.113,1.394,1.394,0,0,0-1.027.372,1.821,1.821,0,0,0-.479,1.054Z" transform="translate(-519.198 -562.639)" fill="#6bb336"></path>
  <path id="Trazado_24" data-name="Trazado 24" d="M709.084,590.265a.328.328,0,0,1,.238.1l.646.7a3.546,3.546,0,0,1-1.32,1.018,4.546,4.546,0,0,1-1.88.354,4.441,4.441,0,0,1-1.764-.335,3.88,3.88,0,0,1-1.338-.932,4.079,4.079,0,0,1-.85-1.426,5.358,5.358,0,0,1-.3-1.81,5.04,5.04,0,0,1,.317-1.819,4.186,4.186,0,0,1,.893-1.423,4.042,4.042,0,0,1,1.374-.93,4.559,4.559,0,0,1,1.767-.332,4.339,4.339,0,0,1,1.71.317,4.078,4.078,0,0,1,1.271.829l-.549.762a.5.5,0,0,1-.125.128.355.355,0,0,1-.21.055.4.4,0,0,1-.189-.052q-.1-.051-.213-.128t-.268-.168a2.22,2.22,0,0,0-.353-.168,2.953,2.953,0,0,0-.466-.128,3.243,3.243,0,0,0-.613-.052,2.715,2.715,0,0,0-1.082.21,2.349,2.349,0,0,0-.844.609,2.8,2.8,0,0,0-.549.975,4.084,4.084,0,0,0-.2,1.313,3.861,3.861,0,0,0,.21,1.323,2.909,2.909,0,0,0,.57.975,2.428,2.428,0,0,0,.847.606,2.619,2.619,0,0,0,1.048.21,4.576,4.576,0,0,0,.607-.036,2.591,2.591,0,0,0,.5-.116,2.226,2.226,0,0,0,.433-.2,2.712,2.712,0,0,0,.405-.308.584.584,0,0,1,.128-.088.311.311,0,0,1,.14-.033" transform="translate(-554.379 -553.197)" fill="#6bb336"></path>
  <path id="Trazado_25" data-name="Trazado 25" d="M742.54,595.434a3.414,3.414,0,0,1,1.265.225,2.769,2.769,0,0,1,.975.64,2.809,2.809,0,0,1,.625,1.012,4.191,4.191,0,0,1,0,2.675A2.873,2.873,0,0,1,744.78,601a2.732,2.732,0,0,1-.975.646,3.415,3.415,0,0,1-1.265.225,3.455,3.455,0,0,1-1.274-.225,2.726,2.726,0,0,1-.978-.646,2.906,2.906,0,0,1-.628-1.018,4.133,4.133,0,0,1,0-2.675,2.84,2.84,0,0,1,.628-1.012,2.763,2.763,0,0,1,.978-.64,3.453,3.453,0,0,1,1.274-.225m0,5.284a1.324,1.324,0,0,0,1.155-.524,2.628,2.628,0,0,0,.375-1.536,2.659,2.659,0,0,0-.375-1.542,1.319,1.319,0,0,0-1.155-.53,1.344,1.344,0,0,0-1.173.534,2.629,2.629,0,0,0-.381,1.539,2.6,2.6,0,0,0,.381,1.533,1.35,1.35,0,0,0,1.173.527" transform="translate(-583.423 -562.638)" fill="#6bb336"></path>
  <path id="Trazado_26" data-name="Trazado 26" d="M773.841,601.785v-6.253h.92a.37.37,0,0,1,.384.274l.1.463a3.534,3.534,0,0,1,.344-.335,2.21,2.21,0,0,1,.384-.262,2.088,2.088,0,0,1,.439-.174,1.963,1.963,0,0,1,.515-.064,1.46,1.46,0,0,1,.972.32.532.532,0,1,0,.935.317,2.011,2.011,0,0,1,.482-.363,2.215,2.215,0,0,1,.558-.207,2.684,2.684,0,0,1,.594-.067,2.492,2.492,0,0,1,.92.159,1.765,1.765,0,0,1,.677.463,2.042,2.042,0,0,1,.417.744,3.238,3.238,0,0,1,.143,1.006v3.98h-1.505v-3.98a1.338,1.338,0,0,0-.262-.9.962.962,0,0,0-.768-.3,1.148,1.148,0,0,0-.43.079,1.021,1.021,0,0,0-.347.229,1.047,1.047,0,0,0-.235.375,1.456,1.456,0,0,0-.085.518v3.98h-1.512v-3.98a1.361,1.361,0,0,0-.253-.914.936.936,0,0,0-.74-.286,1.216,1.216,0,0,0-.612.161,2.042,2.042,0,0,0-.527.442v4.577Z" transform="translate(-610.489 -562.639)" fill="#6bb336"></path>
  <path id="Trazado_27" data-name="Trazado 27" d="M823.128,596.317a3.26,3.26,0,0,1,.872-.7,2.34,2.34,0,0,1,1.146-.268,2.05,2.05,0,0,1,.936.214,2.1,2.1,0,0,1,.731.618,2.975,2.975,0,0,1,.475,1,5.029,5.029,0,0,1,.168,1.362,4.282,4.282,0,0,1-.189,1.3,3.171,3.171,0,0,1-.539,1.036,2.489,2.489,0,0,1-.847.686,2.463,2.463,0,0,1-1.112.247,2.243,2.243,0,0,1-.9-.161,2.191,2.191,0,0,1-.664-.448v2.56H821.7v-8.295h.92a.37.37,0,0,1,.384.274Zm.079,3.778a1.482,1.482,0,0,0,.558.439,1.66,1.66,0,0,0,.655.128,1.439,1.439,0,0,0,.616-.128,1.2,1.2,0,0,0,.466-.39,1.931,1.931,0,0,0,.3-.661,3.776,3.776,0,0,0,.1-.942,4.179,4.179,0,0,0-.089-.929,1.8,1.8,0,0,0-.253-.619,1,1,0,0,0-.4-.347,1.244,1.244,0,0,0-.533-.11,1.52,1.52,0,0,0-.8.2,2.428,2.428,0,0,0-.622.558Z" transform="translate(-648.142 -562.571)" fill="#6bb336"></path>
  <path id="Trazado_28" data-name="Trazado 28" d="M852.376,596.335a3.711,3.711,0,0,1,2.6-.987,2.536,2.536,0,0,1,.981.18,2.071,2.071,0,0,1,.731.5,2.142,2.142,0,0,1,.454.765,2.937,2.937,0,0,1,.156.975v3.949h-.683a.689.689,0,0,1-.329-.064.444.444,0,0,1-.183-.259l-.134-.451a5.381,5.381,0,0,1-.463.375,2.736,2.736,0,0,1-.469.271,2.542,2.542,0,0,1-.521.167,3,3,0,0,1-.612.058,2.4,2.4,0,0,1-.731-.107,1.607,1.607,0,0,1-.579-.32,1.435,1.435,0,0,1-.378-.53,1.875,1.875,0,0,1-.134-.737,1.472,1.472,0,0,1,.079-.472,1.386,1.386,0,0,1,.259-.448,2.155,2.155,0,0,1,.466-.4,3.026,3.026,0,0,1,.7-.329,6.075,6.075,0,0,1,.972-.229,9.711,9.711,0,0,1,1.268-.107v-.366a1.369,1.369,0,0,0-.268-.93.981.981,0,0,0-.774-.3,1.841,1.841,0,0,0-.606.085,2.5,2.5,0,0,0-.424.192l-.332.192a.657.657,0,0,1-.332.085.434.434,0,0,1-.268-.082.688.688,0,0,1-.177-.192Zm3.449,2.712a8.293,8.293,0,0,0-1.1.113,2.913,2.913,0,0,0-.713.21.937.937,0,0,0-.384.3.739.739,0,0,0,.119.938,1.017,1.017,0,0,0,.613.171,1.786,1.786,0,0,0,.8-.167,2.378,2.378,0,0,0,.661-.509Z" transform="translate(-672.038 -562.571)" fill="#6bb336"></path>
  <path id="Trazado_29" data-name="Trazado 29" d="M884.573,596.3a4.065,4.065,0,0,1,.4-.35,2.529,2.529,0,0,1,.445-.274,2.479,2.479,0,0,1,.5-.177,2.517,2.517,0,0,1,.585-.064,2.24,2.24,0,0,1,.908.174,1.8,1.8,0,0,1,.661.487,2.148,2.148,0,0,1,.4.75,3.191,3.191,0,0,1,.137.96v3.98h-1.505V597.8a1.347,1.347,0,0,0-.262-.887.981.981,0,0,0-.8-.314,1.568,1.568,0,0,0-.731.177,2.626,2.626,0,0,0-.646.482v4.522h-1.505v-6.253h.92a.37.37,0,0,1,.384.274Z" transform="translate(-696.496 -562.638)" fill="#6bb336"></path>
  <path id="Trazado_30" data-name="Trazado 30" d="M917.669,595.891l-3.407,7.971a.583.583,0,0,1-.174.241.532.532,0,0,1-.326.082h-1.121l1.17-2.511-2.529-5.784H912.6a.416.416,0,0,1,.277.085.547.547,0,0,1,.149.195l1.328,3.242a3,3,0,0,1,.113.329q.046.165.088.335l.11-.338q.055-.168.122-.332l1.255-3.236a.445.445,0,0,1,.162-.2.43.43,0,0,1,.253-.079Z" transform="translate(-718.616 -562.998)" fill="#6bb336"></path>
  <path id="Trazado_31" data-name="Trazado 31" d="M28.079,443.008a5.461,5.461,0,0,0-4.924,3.1,4.9,4.9,0,0,1-2.6.7,5.075,5.075,0,0,1-1.969-.434,5.543,5.543,0,1,0,.183,3.874,4.4,4.4,0,0,1,4.1-.148,5.462,5.462,0,1,0,5.215-7.087" transform="translate(-7.946 -442.722)" fill="#6bb336"></path>
  <path id="Trazado_32" data-name="Trazado 32" d="M126.646,444.155a5.338,5.338,0,0,0-4.467,8.262,3.572,3.572,0,0,1-1.831,4.346,5.34,5.34,0,1,0,3.264,2.276,4.244,4.244,0,0,1,2.951-4.209l.082,0a5.339,5.339,0,0,0,0-10.678" transform="translate(-91.229 -443.625)" fill="#6bb336"></path>
  <path id="Trazado_33" data-name="Trazado 33" d="M58.033,519.221a5.429,5.429,0,0,0-.653.041,3.074,3.074,0,0,1-1.854-1.29,4.285,4.285,0,0,1-.366-2.641,5.379,5.379,0,1,0-4.381,2.26c.177,0,.352-.009.525-.026a4.03,4.03,0,0,1,1.942,2.145,3.887,3.887,0,0,1,.165,2.14,5.345,5.345,0,0,0-.641,1.64c-.1.166-.177.27-.2.3l.161-.1a5.379,5.379,0,1,0,5.3-4.461" transform="translate(-37.411 -492.933)" fill="#024f9a"></path>
  <path id="Trazado_34" data-name="Trazado 34" d="M944.279,589.136h1.932v.543h-.636v1.8h-.663v-1.8h-.632Zm5.017,0v2.34h-.582V590.3l.043-.373-.59,1.16a.242.242,0,0,1-.229.143h-.093a.23.23,0,0,1-.225-.143l-.59-1.164.043.376v1.172h-.582v-2.34h.57a.322.322,0,0,1,.124.018.3.3,0,0,1,.093.083l.5.989a2.128,2.128,0,0,1,.1.271c.013-.044.028-.089.047-.136a1.225,1.225,0,0,1,.062-.136l.516-.989a.294.294,0,0,1,.093-.083.307.307,0,0,1,.12-.018Z" transform="translate(-744.575 -557.684)" fill="#6bb336"></path>
</svg>
